<mxfile host="app.diagrams.net" agent="Mozilla/5.0 (Windows NT 10.0; Win64; x64) AppleWebKit/537.36 (KHTML, like Gecko) Chrome/122.0.0.0 Safari/537.36 Edg/122.0.0.0" version="24.7.8" pages="4">
  <diagram id="i7KtP-Vs8fw_sYRqWalm" name="入库-提交">
    <mxGraphModel dx="2498" dy="314" grid="1" gridSize="10" guides="1" tooltips="1" connect="1" arrows="1" fold="1" page="1" pageScale="1" pageWidth="1019" pageHeight="1320" math="0" shadow="0">
      <root>
        <mxCell id="0" />
        <mxCell id="1" parent="0" />
        <mxCell id="R4Yoox74ziZtiqveG720-2" value="" style="group" parent="1" vertex="1" connectable="0">
          <mxGeometry x="-1089.5" y="20" width="1089.5" height="960" as="geometry" />
        </mxCell>
        <mxCell id="XppZFFv2hi1EjOijFOD9-25" value="sd searchForItems" style="shape=umlFrame;whiteSpace=wrap;html=1;width=120;height=30;boundedLbl=1;verticalAlign=middle;align=left;spacingLeft=5;fillColor=#f5f5f5;fontColor=#333333;strokeColor=#666666;" parent="R4Yoox74ziZtiqveG720-2" vertex="1">
          <mxGeometry width="1089.5" height="960" as="geometry" />
        </mxCell>
        <mxCell id="JydccJCQ6fTOZagrxZ0v-60" value="Loop" style="shape=umlFrame;whiteSpace=wrap;html=1;pointerEvents=0;recursiveResize=0;container=1;collapsible=0;width=160;shadow=1;sketch=1;curveFitting=1;jiggle=2;" parent="R4Yoox74ziZtiqveG720-2" vertex="1">
          <mxGeometry x="246.41229166666665" y="360" width="736.6754166666667" height="220" as="geometry" />
        </mxCell>
        <mxCell id="JydccJCQ6fTOZagrxZ0v-65" value="" style="html=1;points=[[0,0,0,0,5],[0,1,0,0,-5],[1,0,0,0,5],[1,1,0,0,-5]];perimeter=orthogonalPerimeter;outlineConnect=0;targetShapes=umlLifeline;portConstraint=eastwest;newEdgeStyle={&quot;curved&quot;:0,&quot;rounded&quot;:0};fillColor=#dae8fc;strokeColor=#6c8ebf;" parent="JydccJCQ6fTOZagrxZ0v-60" vertex="1">
          <mxGeometry x="390.36625" y="100" width="10.245833333333334" height="42" as="geometry" />
        </mxCell>
        <mxCell id="HT6MiuLGCi4q6tSzI8XS-2" value="" style="html=1;points=[];perimeter=orthogonalPerimeter;fillColor=#e1d5e7;strokeColor=#9673a6;" parent="JydccJCQ6fTOZagrxZ0v-60" vertex="1">
          <mxGeometry x="671.1020833333333" y="423" width="10.245833333333334" height="50" as="geometry" />
        </mxCell>
        <mxCell id="HT6MiuLGCi4q6tSzI8XS-3" value="" style="html=1;verticalAlign=bottom;endArrow=block;entryX=0;entryY=0.072;rounded=0;entryDx=0;entryDy=0;entryPerimeter=0;" parent="JydccJCQ6fTOZagrxZ0v-60" edge="1">
          <mxGeometry x="1" y="125" relative="1" as="geometry">
            <mxPoint x="409.83333333333337" y="423" as="sourcePoint" />
            <mxPoint x="664.9545833333333" y="423" as="targetPoint" />
            <mxPoint x="125" y="125" as="offset" />
          </mxGeometry>
        </mxCell>
        <mxCell id="HT6MiuLGCi4q6tSzI8XS-4" value="&lt;span style=&quot;color: rgb(25, 25, 25); font-family: &amp;quot;Microsoft YaHei&amp;quot;; font-size: 13.3333px;&quot;&gt;&lt;b&gt;提交货位号以及血液（Inbox）&lt;/b&gt;&lt;/span&gt;" style="edgeLabel;html=1;align=center;verticalAlign=middle;resizable=0;points=[];" parent="HT6MiuLGCi4q6tSzI8XS-3" vertex="1" connectable="0">
          <mxGeometry x="-0.0222" y="1" relative="1" as="geometry">
            <mxPoint as="offset" />
          </mxGeometry>
        </mxCell>
        <mxCell id="HT6MiuLGCi4q6tSzI8XS-7" value="" style="endArrow=block;dashed=1;endFill=0;endSize=12;html=1;rounded=0;entryX=1;entryY=0;entryDx=0;entryDy=5;entryPerimeter=0;" parent="JydccJCQ6fTOZagrxZ0v-60" target="HT6MiuLGCi4q6tSzI8XS-6" edge="1">
          <mxGeometry width="160" relative="1" as="geometry">
            <mxPoint x="675.2004166666667" y="469" as="sourcePoint" />
            <mxPoint x="480.5295833333334" y="465" as="targetPoint" />
          </mxGeometry>
        </mxCell>
        <mxCell id="HT6MiuLGCi4q6tSzI8XS-8" value="Text" style="edgeLabel;html=1;align=center;verticalAlign=middle;resizable=0;points=[];" parent="HT6MiuLGCi4q6tSzI8XS-7" vertex="1" connectable="0">
          <mxGeometry x="0.0519" y="-1" relative="1" as="geometry">
            <mxPoint as="offset" />
          </mxGeometry>
        </mxCell>
        <mxCell id="HT6MiuLGCi4q6tSzI8XS-9" value="return" style="edgeLabel;html=1;align=center;verticalAlign=middle;resizable=0;points=[];" parent="HT6MiuLGCi4q6tSzI8XS-7" vertex="1" connectable="0">
          <mxGeometry x="0.037" y="-2" relative="1" as="geometry">
            <mxPoint as="offset" />
          </mxGeometry>
        </mxCell>
        <mxCell id="rYg8_pKWDpieuBRK71my-3" value="&lt;b style=&quot;font-size: 16px;&quot;&gt;返回标签&lt;/b&gt;" style="text;html=1;align=center;verticalAlign=middle;resizable=0;points=[];autosize=1;strokeColor=none;fillColor=none;" parent="JydccJCQ6fTOZagrxZ0v-60" vertex="1">
          <mxGeometry x="19.46708333333333" y="40" width="90" height="30" as="geometry" />
        </mxCell>
        <mxCell id="JydccJCQ6fTOZagrxZ0v-61" value="" style="html=1;points=[[0,0,0,0,5],[0,1,0,0,-5],[1,0,0,0,5],[1,1,0,0,-5]];perimeter=orthogonalPerimeter;outlineConnect=0;targetShapes=umlLifeline;portConstraint=eastwest;newEdgeStyle={&quot;curved&quot;:0,&quot;rounded&quot;:0};fillColor=#ffe6cc;strokeColor=#d79b00;" parent="JydccJCQ6fTOZagrxZ0v-60" vertex="1">
          <mxGeometry x="140.36791666666667" y="140" width="10.245833333333334" height="39" as="geometry" />
        </mxCell>
        <mxCell id="ppZE_xoksTWEemSVoQRX-1" value="&lt;b&gt;[transactionId=20240902x]&lt;/b&gt;" style="text;html=1;align=center;verticalAlign=middle;resizable=0;points=[];autosize=1;strokeColor=none;fillColor=none;" parent="JydccJCQ6fTOZagrxZ0v-60" vertex="1">
          <mxGeometry x="183.39700138888892" y="390" width="170" height="30" as="geometry" />
        </mxCell>
        <mxCell id="XppZFFv2hi1EjOijFOD9-2" value=":Customer" style="shape=umlLifeline;participant=umlActor;perimeter=lifelinePerimeter;html=1;container=1;collapsible=0;recursiveResize=0;verticalAlign=top;spacingTop=36;outlineConnect=0;size=40;fillColor=#f8cecc;strokeColor=#b85450;" parent="R4Yoox74ziZtiqveG720-2" vertex="1">
          <mxGeometry x="173.666875" y="150" width="20.491666666666664" height="750" as="geometry" />
        </mxCell>
        <mxCell id="XppZFFv2hi1EjOijFOD9-3" value="" style="html=1;points=[];perimeter=orthogonalPerimeter;fillColor=#f8cecc;strokeColor=#b85450;" parent="XppZFFv2hi1EjOijFOD9-2" vertex="1">
          <mxGeometry x="5.122916666666666" y="70" width="10.245833333333332" height="680" as="geometry" />
        </mxCell>
        <mxCell id="ppZE_xoksTWEemSVoQRX-8" value="" style="endArrow=open;endFill=1;endSize=12;html=1;rounded=0;" parent="XppZFFv2hi1EjOijFOD9-2" edge="1">
          <mxGeometry width="160" relative="1" as="geometry">
            <mxPoint y="550" as="sourcePoint" />
            <mxPoint y="478" as="targetPoint" />
            <Array as="points">
              <mxPoint x="-81.96666666666665" y="550" />
              <mxPoint x="-112.70416666666664" y="550" />
              <mxPoint x="-112.70416666666664" y="478" />
            </Array>
          </mxGeometry>
        </mxCell>
        <mxCell id="XppZFFv2hi1EjOijFOD9-11" value="&lt;span style=&quot;font-family:&#39;Microsoft YaHei&#39;; font-size:10.5pt; font-weight:600; color:#191919;&quot;&gt;冷库服务&lt;/span&gt;" style="shape=umlLifeline;perimeter=lifelinePerimeter;whiteSpace=wrap;html=1;container=1;collapsible=0;recursiveResize=0;outlineConnect=0;fillColor=#dae8fc;strokeColor=#6c8ebf;" parent="R4Yoox74ziZtiqveG720-2" vertex="1">
          <mxGeometry x="565.0577083333333" y="142.5" width="151.6383333333333" height="757.5" as="geometry" />
        </mxCell>
        <mxCell id="XppZFFv2hi1EjOijFOD9-12" value="" style="html=1;points=[];perimeter=orthogonalPerimeter;fillColor=#dae8fc;strokeColor=#6c8ebf;" parent="XppZFFv2hi1EjOijFOD9-11" vertex="1">
          <mxGeometry x="71.72083333333332" y="80" width="10.245833333333332" height="200" as="geometry" />
        </mxCell>
        <mxCell id="JydccJCQ6fTOZagrxZ0v-37" value="" style="group" parent="XppZFFv2hi1EjOijFOD9-11" vertex="1" connectable="0">
          <mxGeometry x="77.86833333333333" y="100" width="35.86041666666666" height="60" as="geometry" />
        </mxCell>
        <mxCell id="JydccJCQ6fTOZagrxZ0v-41" value="" style="group" parent="JydccJCQ6fTOZagrxZ0v-37" vertex="1" connectable="0">
          <mxGeometry y="-8" width="35.86041666666666" height="54" as="geometry" />
        </mxCell>
        <mxCell id="JydccJCQ6fTOZagrxZ0v-35" value="" style="html=1;points=[[0,0,0,0,5],[0,1,0,0,-5],[1,0,0,0,5],[1,1,0,0,-5]];perimeter=orthogonalPerimeter;outlineConnect=0;targetShapes=umlLifeline;portConstraint=eastwest;newEdgeStyle={&quot;curved&quot;:0,&quot;rounded&quot;:0};fillColor=#dae8fc;strokeColor=#6c8ebf;" parent="JydccJCQ6fTOZagrxZ0v-41" vertex="1">
          <mxGeometry y="14" width="10.245833333333328" height="40" as="geometry" />
        </mxCell>
        <mxCell id="JydccJCQ6fTOZagrxZ0v-36" value="&amp;nbsp;&lt;span style=&quot;text-align: center;&quot;&gt;validate&lt;/span&gt;" style="html=1;align=left;spacingLeft=2;endArrow=block;rounded=0;edgeStyle=orthogonalEdgeStyle;curved=0;rounded=0;" parent="JydccJCQ6fTOZagrxZ0v-41" edge="1">
          <mxGeometry relative="1" as="geometry">
            <mxPoint x="5.122916666666664" as="sourcePoint" />
            <Array as="points">
              <mxPoint x="35.86041666666666" y="30" />
            </Array>
            <mxPoint x="10.245833333333328" y="30" as="targetPoint" />
          </mxGeometry>
        </mxCell>
        <mxCell id="JydccJCQ6fTOZagrxZ0v-40" value="" style="group" parent="XppZFFv2hi1EjOijFOD9-11" vertex="1" connectable="0">
          <mxGeometry x="76.84375" y="155" width="35.86041666666666" height="60" as="geometry" />
        </mxCell>
        <mxCell id="JydccJCQ6fTOZagrxZ0v-38" value="" style="html=1;points=[[0,0,0,0,5],[0,1,0,0,-5],[1,0,0,0,5],[1,1,0,0,-5]];perimeter=orthogonalPerimeter;outlineConnect=0;targetShapes=umlLifeline;portConstraint=eastwest;newEdgeStyle={&quot;curved&quot;:0,&quot;rounded&quot;:0};fillColor=#dae8fc;strokeColor=#6c8ebf;" parent="JydccJCQ6fTOZagrxZ0v-40" vertex="1">
          <mxGeometry y="20" width="10.245833333333328" height="40" as="geometry" />
        </mxCell>
        <mxCell id="JydccJCQ6fTOZagrxZ0v-39" value="StartRfidReader" style="html=1;align=left;spacingLeft=2;endArrow=block;rounded=0;edgeStyle=orthogonalEdgeStyle;curved=0;rounded=0;" parent="JydccJCQ6fTOZagrxZ0v-40" target="JydccJCQ6fTOZagrxZ0v-38" edge="1">
          <mxGeometry relative="1" as="geometry">
            <mxPoint x="5.122916666666664" as="sourcePoint" />
            <Array as="points">
              <mxPoint x="35.86041666666666" y="30" />
            </Array>
          </mxGeometry>
        </mxCell>
        <mxCell id="XppZFFv2hi1EjOijFOD9-13" value="BiCycle" style="shape=umlLifeline;participant=umlEntity;perimeter=lifelinePerimeter;whiteSpace=wrap;html=1;container=1;collapsible=0;recursiveResize=0;verticalAlign=top;spacingTop=36;outlineConnect=0;fillColor=#e1d5e7;strokeColor=#9673a6;" parent="R4Yoox74ziZtiqveG720-2" vertex="1">
          <mxGeometry x="901.1210416666665" y="142.5" width="40.98333333333333" height="767.5" as="geometry" />
        </mxCell>
        <mxCell id="JydccJCQ6fTOZagrxZ0v-12" value="" style="html=1;verticalAlign=bottom;endArrow=block;entryX=0;entryY=0.072;rounded=0;entryDx=0;entryDy=0;entryPerimeter=0;" parent="R4Yoox74ziZtiqveG720-2" source="XppZFFv2hi1EjOijFOD9-5" target="XppZFFv2hi1EjOijFOD9-12" edge="1">
          <mxGeometry x="1" y="125" relative="1" as="geometry">
            <mxPoint x="368.33770833333335" y="250" as="sourcePoint" />
            <mxPoint x="542.5168749999999" y="250" as="targetPoint" />
            <mxPoint x="125" y="125" as="offset" />
          </mxGeometry>
        </mxCell>
        <mxCell id="JydccJCQ6fTOZagrxZ0v-42" value="&lt;span style=&quot;color: rgb(25, 25, 25); font-family: &amp;quot;Microsoft YaHei&amp;quot;; font-size: 13.3333px;&quot;&gt;&lt;b&gt;开启入库事务（begin）&lt;/b&gt;&lt;/span&gt;" style="edgeLabel;html=1;align=center;verticalAlign=middle;resizable=0;points=[];" parent="JydccJCQ6fTOZagrxZ0v-12" vertex="1" connectable="0">
          <mxGeometry x="-0.0222" y="1" relative="1" as="geometry">
            <mxPoint as="offset" />
          </mxGeometry>
        </mxCell>
        <mxCell id="JydccJCQ6fTOZagrxZ0v-32" value="error" style="html=1;verticalAlign=bottom;endArrow=open;dashed=1;endSize=8;curved=0;rounded=0;exitX=0;exitY=1;exitDx=0;exitDy=-5;exitPerimeter=0;" parent="R4Yoox74ziZtiqveG720-2" source="JydccJCQ6fTOZagrxZ0v-35" target="XppZFFv2hi1EjOijFOD9-5" edge="1">
          <mxGeometry relative="1" as="geometry">
            <mxPoint x="603.9918749999996" y="299.9980000000004" as="sourcePoint" />
            <mxPoint x="368.33770833333335" y="286" as="targetPoint" />
          </mxGeometry>
        </mxCell>
        <mxCell id="JydccJCQ6fTOZagrxZ0v-63" value="" style="html=1;verticalAlign=bottom;endArrow=block;entryX=0.417;entryY=-0.029;rounded=0;exitX=0.833;exitY=0.986;exitDx=0;exitDy=0;exitPerimeter=0;entryDx=0;entryDy=0;entryPerimeter=0;" parent="R4Yoox74ziZtiqveG720-2" source="XppZFFv2hi1EjOijFOD9-12" target="XppZFFv2hi1EjOijFOD9-14" edge="1">
          <mxGeometry x="1" y="125" relative="1" as="geometry">
            <mxPoint x="675.7127083333334" y="420" as="sourcePoint" />
            <mxPoint x="890.8752083333333" y="420" as="targetPoint" />
            <mxPoint x="125" y="125" as="offset" />
          </mxGeometry>
        </mxCell>
        <mxCell id="JydccJCQ6fTOZagrxZ0v-64" value="QueryByEpc" style="edgeLabel;html=1;align=center;verticalAlign=middle;resizable=0;points=[];" parent="JydccJCQ6fTOZagrxZ0v-63" vertex="1" connectable="0">
          <mxGeometry x="-0.0196" relative="1" as="geometry">
            <mxPoint as="offset" />
          </mxGeometry>
        </mxCell>
        <mxCell id="JydccJCQ6fTOZagrxZ0v-75" value="Full /&amp;nbsp;Incremental" style="text;html=1;align=center;verticalAlign=middle;resizable=0;points=[];autosize=1;strokeColor=none;fillColor=none;fontStyle=1" parent="R4Yoox74ziZtiqveG720-2" vertex="1">
          <mxGeometry x="482.06645833333323" y="467" width="120" height="30" as="geometry" />
        </mxCell>
        <mxCell id="XppZFFv2hi1EjOijFOD9-14" value="" style="html=1;points=[];perimeter=orthogonalPerimeter;fillColor=#e1d5e7;strokeColor=#9673a6;" parent="R4Yoox74ziZtiqveG720-2" vertex="1">
          <mxGeometry x="916.4897916666665" y="418" width="10.245833333333332" height="42" as="geometry" />
        </mxCell>
        <mxCell id="JydccJCQ6fTOZagrxZ0v-68" value="" style="endArrow=block;dashed=1;endFill=0;endSize=12;html=1;rounded=0;exitX=0.833;exitY=1.054;exitDx=0;exitDy=0;exitPerimeter=0;entryX=1;entryY=0;entryDx=0;entryDy=5;entryPerimeter=0;" parent="R4Yoox74ziZtiqveG720-2" source="XppZFFv2hi1EjOijFOD9-14" target="JydccJCQ6fTOZagrxZ0v-65" edge="1">
          <mxGeometry width="160" relative="1" as="geometry">
            <mxPoint x="707.4747916666666" y="480" as="sourcePoint" />
            <mxPoint x="871.4081249999999" y="480" as="targetPoint" />
          </mxGeometry>
        </mxCell>
        <mxCell id="JydccJCQ6fTOZagrxZ0v-69" value="Text" style="edgeLabel;html=1;align=center;verticalAlign=middle;resizable=0;points=[];" parent="JydccJCQ6fTOZagrxZ0v-68" vertex="1" connectable="0">
          <mxGeometry x="0.0127" y="1" relative="1" as="geometry">
            <mxPoint as="offset" />
          </mxGeometry>
        </mxCell>
        <mxCell id="JydccJCQ6fTOZagrxZ0v-71" value="TagInfo" style="edgeLabel;html=1;align=center;verticalAlign=middle;resizable=0;points=[];" parent="JydccJCQ6fTOZagrxZ0v-68" vertex="1" connectable="0">
          <mxGeometry x="0.0125" y="-1" relative="1" as="geometry">
            <mxPoint as="offset" />
          </mxGeometry>
        </mxCell>
        <mxCell id="ppZE_xoksTWEemSVoQRX-5" value="入库失败请重试" style="html=1;verticalAlign=bottom;endArrow=open;dashed=1;endSize=8;curved=0;rounded=0;" parent="R4Yoox74ziZtiqveG720-2" source="XppZFFv2hi1EjOijFOD9-4" edge="1">
          <mxGeometry x="-0.0008" relative="1" as="geometry">
            <mxPoint x="332.4772916666666" y="690" as="sourcePoint" />
            <mxPoint x="194.15854166666668" y="692" as="targetPoint" />
            <mxPoint as="offset" />
          </mxGeometry>
        </mxCell>
        <mxCell id="ppZE_xoksTWEemSVoQRX-11" value="" style="endArrow=open;endFill=1;endSize=12;html=1;rounded=0;entryX=-0.1;entryY=0.469;entryDx=0;entryDy=0;entryPerimeter=0;" parent="R4Yoox74ziZtiqveG720-2" edge="1">
          <mxGeometry width="160" relative="1" as="geometry">
            <mxPoint x="167.51937499999997" y="290" as="sourcePoint" />
            <mxPoint x="167.51937499999997" y="230" as="targetPoint" />
            <Array as="points">
              <mxPoint x="50.71687500000007" y="290" />
              <mxPoint x="50.71687500000007" y="230" />
            </Array>
          </mxGeometry>
        </mxCell>
        <mxCell id="ppZE_xoksTWEemSVoQRX-16" value="" style="shape=umlDestroy;html=1;" parent="R4Yoox74ziZtiqveG720-2" vertex="1">
          <mxGeometry x="276.1252083333334" y="700" width="30.737499999999994" height="30" as="geometry" />
        </mxCell>
        <mxCell id="ppZE_xoksTWEemSVoQRX-17" value="" style="shape=umlDestroy;html=1;" parent="R4Yoox74ziZtiqveG720-2" vertex="1">
          <mxGeometry x="276.1252083333334" y="290" width="30.737499999999994" height="30" as="geometry" />
        </mxCell>
        <mxCell id="XppZFFv2hi1EjOijFOD9-4" value="&lt;span style=&quot;font-family:&#39;Microsoft YaHei&#39;; font-size:10.5pt; font-weight:600; color:#191919;&quot;&gt;冷库业务系统&lt;/span&gt;" style="shape=umlLifeline;perimeter=lifelinePerimeter;whiteSpace=wrap;html=1;container=1;collapsible=0;recursiveResize=0;outlineConnect=0;fillColor=#ffe6cc;strokeColor=#d79b00;" parent="R4Yoox74ziZtiqveG720-2" vertex="1">
          <mxGeometry x="306.86270833333333" y="142.5" width="157.0993625" height="770" as="geometry" />
        </mxCell>
        <mxCell id="XppZFFv2hi1EjOijFOD9-5" value="" style="html=1;points=[];perimeter=orthogonalPerimeter;fillColor=#ffe6cc;strokeColor=#d79b00;" parent="XppZFFv2hi1EjOijFOD9-4" vertex="1">
          <mxGeometry x="74.62040416666666" y="77.5" width="7.858554166666665" height="682.5" as="geometry" />
        </mxCell>
        <mxCell id="ppZE_xoksTWEemSVoQRX-2" value="" style="html=1;points=[[0,0,0,0,5],[0,1,0,0,-5],[1,0,0,0,5],[1,1,0,0,-5]];perimeter=orthogonalPerimeter;outlineConnect=0;targetShapes=umlLifeline;portConstraint=eastwest;newEdgeStyle={&quot;curved&quot;:0,&quot;rounded&quot;:0};fillColor=#ffe6cc;strokeColor=#d79b00;" parent="XppZFFv2hi1EjOijFOD9-4" vertex="1">
          <mxGeometry x="77.86833333333333" y="512.5" width="10.245833333333332" height="40" as="geometry" />
        </mxCell>
        <mxCell id="ppZE_xoksTWEemSVoQRX-3" value="等待机械臂" style="html=1;align=left;spacingLeft=2;endArrow=block;rounded=0;edgeStyle=orthogonalEdgeStyle;curved=0;rounded=0;" parent="XppZFFv2hi1EjOijFOD9-4" target="ppZE_xoksTWEemSVoQRX-2" edge="1">
          <mxGeometry relative="1" as="geometry">
            <mxPoint x="82.99125" y="492.5" as="sourcePoint" />
            <Array as="points">
              <mxPoint x="113.72874999999999" y="522.5" />
            </Array>
          </mxGeometry>
        </mxCell>
        <mxCell id="ppZE_xoksTWEemSVoQRX-10" value="请处理异常" style="html=1;verticalAlign=bottom;endArrow=open;dashed=1;endSize=8;curved=0;rounded=0;" parent="XppZFFv2hi1EjOijFOD9-4" edge="1">
          <mxGeometry x="-0.0008" relative="1" as="geometry">
            <mxPoint x="74.62040416666663" y="140.5" as="sourcePoint" />
            <mxPoint x="-112.70416666666664" y="140.5" as="targetPoint" />
            <mxPoint as="offset" />
          </mxGeometry>
        </mxCell>
        <mxCell id="XppZFFv2hi1EjOijFOD9-10" value="" style="html=1;verticalAlign=bottom;endArrow=block;entryX=0;entryY=0;rounded=0;" parent="R4Yoox74ziZtiqveG720-2" source="XppZFFv2hi1EjOijFOD9-3" target="XppZFFv2hi1EjOijFOD9-5" edge="1">
          <mxGeometry x="1" y="125" relative="1" as="geometry">
            <mxPoint x="295.0799999999999" y="240" as="sourcePoint" />
            <mxPoint x="125" y="125" as="offset" />
          </mxGeometry>
        </mxCell>
        <mxCell id="JydccJCQ6fTOZagrxZ0v-8" value="启动Rfid入库" style="edgeLabel;html=1;align=center;verticalAlign=middle;resizable=0;points=[];" parent="XppZFFv2hi1EjOijFOD9-10" vertex="1" connectable="0">
          <mxGeometry x="-0.0196" relative="1" as="geometry">
            <mxPoint as="offset" />
          </mxGeometry>
        </mxCell>
        <mxCell id="XppZFFv2hi1EjOijFOD9-22" value="&lt;b&gt;[transactionId=20240902x]&lt;/b&gt;" style="text;html=1;align=center;verticalAlign=middle;resizable=0;points=[];autosize=1;strokeColor=none;fillColor=none;" parent="R4Yoox74ziZtiqveG720-2" vertex="1">
          <mxGeometry x="408.97951388888896" y="240" width="170" height="30" as="geometry" />
        </mxCell>
        <mxCell id="JydccJCQ6fTOZagrxZ0v-72" value="" style="endArrow=block;dashed=1;endFill=0;endSize=12;html=1;rounded=0;" parent="R4Yoox74ziZtiqveG720-2" source="JydccJCQ6fTOZagrxZ0v-65" edge="1">
          <mxGeometry width="160" relative="1" as="geometry">
            <mxPoint x="555.4778541666666" y="500" as="sourcePoint" />
            <mxPoint x="393.2692361111111" y="503" as="targetPoint" />
          </mxGeometry>
        </mxCell>
        <mxCell id="JydccJCQ6fTOZagrxZ0v-73" value="Text" style="edgeLabel;html=1;align=center;verticalAlign=middle;resizable=0;points=[];" parent="JydccJCQ6fTOZagrxZ0v-72" vertex="1" connectable="0">
          <mxGeometry x="0.0127" y="1" relative="1" as="geometry">
            <mxPoint as="offset" />
          </mxGeometry>
        </mxCell>
        <mxCell id="JydccJCQ6fTOZagrxZ0v-74" value="TagInfo" style="edgeLabel;html=1;align=center;verticalAlign=middle;resizable=0;points=[];" parent="JydccJCQ6fTOZagrxZ0v-72" vertex="1" connectable="0">
          <mxGeometry x="0.0125" y="-1" relative="1" as="geometry">
            <mxPoint as="offset" />
          </mxGeometry>
        </mxCell>
        <mxCell id="JydccJCQ6fTOZagrxZ0v-99" value="" style="html=1;points=[[0,0,0,0,5],[0,1,0,0,-5],[1,0,0,0,5],[1,1,0,0,-5]];perimeter=orthogonalPerimeter;outlineConnect=0;targetShapes=umlLifeline;portConstraint=eastwest;newEdgeStyle={&quot;curved&quot;:0,&quot;rounded&quot;:0};fillColor=#f8cecc;strokeColor=#b85450;" parent="R4Yoox74ziZtiqveG720-2" vertex="1">
          <mxGeometry x="183.91270833333328" y="620" width="10.245833333333332" height="40" as="geometry" />
        </mxCell>
        <mxCell id="JydccJCQ6fTOZagrxZ0v-100" value="点击入库" style="html=1;verticalAlign=bottom;endArrow=block;curved=0;rounded=0;entryX=0.333;entryY=0.551;entryDx=0;entryDy=0;entryPerimeter=0;" parent="R4Yoox74ziZtiqveG720-2" edge="1">
          <mxGeometry width="80" relative="1" as="geometry">
            <mxPoint x="194.15854166666668" y="620" as="sourcePoint" />
            <mxPoint x="383.70645833333333" y="620" as="targetPoint" />
          </mxGeometry>
        </mxCell>
        <mxCell id="JydccJCQ6fTOZagrxZ0v-104" value="&lt;b&gt;&lt;font style=&quot;font-size: 13.3333px;&quot;&gt;提交货位号以及血液（submit）&lt;/font&gt;&lt;/b&gt;" style="html=1;verticalAlign=bottom;endArrow=block;curved=0;rounded=0;" parent="R4Yoox74ziZtiqveG720-2" target="JydccJCQ6fTOZagrxZ0v-102" edge="1">
          <mxGeometry width="80" relative="1" as="geometry">
            <mxPoint x="388.8293749999999" y="740.08" as="sourcePoint" />
            <mxPoint x="578.3772916666666" y="740.08" as="targetPoint" />
          </mxGeometry>
        </mxCell>
        <mxCell id="JydccJCQ6fTOZagrxZ0v-102" value="" style="html=1;points=[[0,0,0,0,5],[0,1,0,0,-5],[1,0,0,0,5],[1,1,0,0,-5]];perimeter=orthogonalPerimeter;outlineConnect=0;targetShapes=umlLifeline;portConstraint=eastwest;newEdgeStyle={&quot;curved&quot;:0,&quot;rounded&quot;:0};fillColor=#dae8fc;strokeColor=#6c8ebf;" parent="R4Yoox74ziZtiqveG720-2" vertex="1">
          <mxGeometry x="637.803125" y="737" width="10.245833333333332" height="49.5" as="geometry" />
        </mxCell>
        <mxCell id="HT6MiuLGCi4q6tSzI8XS-6" value="" style="html=1;points=[[0,0,0,0,5],[0,1,0,0,-5],[1,0,0,0,5],[1,1,0,0,-5]];perimeter=orthogonalPerimeter;outlineConnect=0;targetShapes=umlLifeline;portConstraint=eastwest;newEdgeStyle={&quot;curved&quot;:0,&quot;rounded&quot;:0};fillColor=#dae8fc;strokeColor=#6c8ebf;" parent="R4Yoox74ziZtiqveG720-2" vertex="1">
          <mxGeometry x="636.7785416666666" y="823.5" width="10.245833333333332" height="39" as="geometry" />
        </mxCell>
        <mxCell id="HT6MiuLGCi4q6tSzI8XS-10" value="" style="endArrow=block;dashed=1;endFill=0;endSize=12;html=1;rounded=0;" parent="R4Yoox74ziZtiqveG720-2" edge="1">
          <mxGeometry width="160" relative="1" as="geometry">
            <mxPoint x="644.9752083333333" y="862.5" as="sourcePoint" />
            <mxPoint x="388.8293749999999" y="863" as="targetPoint" />
          </mxGeometry>
        </mxCell>
        <mxCell id="HT6MiuLGCi4q6tSzI8XS-11" value="Text" style="edgeLabel;html=1;align=center;verticalAlign=middle;resizable=0;points=[];" parent="HT6MiuLGCi4q6tSzI8XS-10" vertex="1" connectable="0">
          <mxGeometry x="0.0519" y="-1" relative="1" as="geometry">
            <mxPoint as="offset" />
          </mxGeometry>
        </mxCell>
        <mxCell id="HT6MiuLGCi4q6tSzI8XS-12" value="return" style="edgeLabel;html=1;align=center;verticalAlign=middle;resizable=0;points=[];" parent="HT6MiuLGCi4q6tSzI8XS-10" vertex="1" connectable="0">
          <mxGeometry x="0.037" y="-2" relative="1" as="geometry">
            <mxPoint as="offset" />
          </mxGeometry>
        </mxCell>
        <mxCell id="JydccJCQ6fTOZagrxZ0v-115" value="&lt;h1&gt;入库-提交&lt;br&gt;&lt;/h1&gt;" style="text;html=1;align=center;verticalAlign=middle;resizable=0;points=[];autosize=1;fillColor=#f8cecc;strokeColor=#b85450;gradientColor=none;rounded=0;glass=1;sketch=1;curveFitting=1;jiggle=2;shadow=1;" parent="R4Yoox74ziZtiqveG720-2" vertex="1">
          <mxGeometry x="463.96520833333324" y="20" width="130" height="70" as="geometry" />
        </mxCell>
        <mxCell id="ppZE_xoksTWEemSVoQRX-15" value="&lt;b style=&quot;text-wrap: nowrap; font-size: 11px;&quot;&gt;最终提交的数据一定是正确的&lt;br&gt;否则会影响后续流程&lt;/b&gt;" style="shape=note2;boundedLbl=1;whiteSpace=wrap;html=1;size=25;verticalAlign=top;align=center;fillColor=#dae8fc;strokeColor=#6c8ebf;" parent="R4Yoox74ziZtiqveG720-2" vertex="1">
          <mxGeometry x="685.9585416666665" y="660" width="204.91666666666666" height="79" as="geometry" />
        </mxCell>
        <mxCell id="JydccJCQ6fTOZagrxZ0v-57" value="" style="shape=umlDestroy;html=1;" parent="R4Yoox74ziZtiqveG720-2" vertex="1">
          <mxGeometry x="501.5335416666667" y="300" width="30.737499999999994" height="30" as="geometry" />
        </mxCell>
        <mxCell id="ppZE_xoksTWEemSVoQRX-19" value="" style="endArrow=block;dashed=1;endFill=0;endSize=12;html=1;rounded=0;" parent="R4Yoox74ziZtiqveG720-2" edge="1">
          <mxGeometry width="160" relative="1" as="geometry">
            <mxPoint x="378.58354166666663" y="862.5" as="sourcePoint" />
            <mxPoint x="194.15854166666668" y="863" as="targetPoint" />
          </mxGeometry>
        </mxCell>
        <mxCell id="ppZE_xoksTWEemSVoQRX-20" value="Text" style="edgeLabel;html=1;align=center;verticalAlign=middle;resizable=0;points=[];" parent="ppZE_xoksTWEemSVoQRX-19" vertex="1" connectable="0">
          <mxGeometry x="0.0519" y="-1" relative="1" as="geometry">
            <mxPoint as="offset" />
          </mxGeometry>
        </mxCell>
        <mxCell id="ppZE_xoksTWEemSVoQRX-21" value="入库成功" style="edgeLabel;html=1;align=center;verticalAlign=middle;resizable=0;points=[];" parent="ppZE_xoksTWEemSVoQRX-19" vertex="1" connectable="0">
          <mxGeometry x="0.037" y="-2" relative="1" as="geometry">
            <mxPoint as="offset" />
          </mxGeometry>
        </mxCell>
      </root>
    </mxGraphModel>
  </diagram>
  <diagram id="bzOw4yuVbTgT4_CGPan6" name="入库-重新扫描">
    <mxGraphModel dx="2181" dy="2094" grid="1" gridSize="10" guides="1" tooltips="1" connect="1" arrows="1" fold="1" page="1" pageScale="1" pageWidth="827" pageHeight="1169" math="0" shadow="0">
      <root>
        <mxCell id="0" />
        <mxCell id="1" parent="0" />
        <mxCell id="F7vfhrbOquVaVjIP4Q21-5" value="" style="html=1;points=[[0,0,0,0,5],[0,1,0,0,-5],[1,0,0,0,5],[1,1,0,0,-5]];perimeter=orthogonalPerimeter;outlineConnect=0;targetShapes=umlLifeline;portConstraint=eastwest;newEdgeStyle={&quot;curved&quot;:0,&quot;rounded&quot;:0};fillColor=#dae8fc;strokeColor=#6c8ebf;container=0;" parent="1" vertex="1">
          <mxGeometry x="591" y="583" width="10" height="97" as="geometry" />
        </mxCell>
        <mxCell id="F7vfhrbOquVaVjIP4Q21-1" value="Loop" style="shape=umlFrame;whiteSpace=wrap;html=1;pointerEvents=0;recursiveResize=0;container=0;collapsible=0;width=160;shadow=1;sketch=1;curveFitting=1;jiggle=2;" parent="1" vertex="1">
          <mxGeometry x="201" y="290" width="750" height="200" as="geometry" />
        </mxCell>
        <mxCell id="F7vfhrbOquVaVjIP4Q21-27" value=":Customer" style="shape=umlLifeline;participant=umlActor;perimeter=lifelinePerimeter;html=1;container=0;collapsible=0;recursiveResize=0;verticalAlign=top;spacingTop=36;outlineConnect=0;size=40;fillColor=#f8cecc;strokeColor=#b85450;" parent="1" vertex="1">
          <mxGeometry x="130" y="80" width="20" height="640" as="geometry" />
        </mxCell>
        <mxCell id="F7vfhrbOquVaVjIP4Q21-31" value="&lt;span style=&quot;font-family:&#39;Microsoft YaHei&#39;; font-size:10.5pt; font-weight:600; color:#191919;&quot;&gt;冷库服务&lt;/span&gt;" style="shape=umlLifeline;perimeter=lifelinePerimeter;whiteSpace=wrap;html=1;container=0;collapsible=0;recursiveResize=0;outlineConnect=0;fillColor=#dae8fc;strokeColor=#6c8ebf;" parent="1" vertex="1">
          <mxGeometry x="520" y="72.5" width="150" height="717.5" as="geometry" />
        </mxCell>
        <mxCell id="LDD_4-pNvfdVsXhReIy6-2" value="关闭RfidReader" style="html=1;align=left;spacingLeft=2;endArrow=block;rounded=0;edgeStyle=orthogonalEdgeStyle;curved=0;rounded=0;" parent="F7vfhrbOquVaVjIP4Q21-31" target="LDD_4-pNvfdVsXhReIy6-1" edge="1">
          <mxGeometry relative="1" as="geometry">
            <mxPoint x="81" y="537.5" as="sourcePoint" />
            <Array as="points">
              <mxPoint x="111" y="567.5" />
            </Array>
          </mxGeometry>
        </mxCell>
        <mxCell id="LDD_4-pNvfdVsXhReIy6-1" value="" style="html=1;points=[[0,0,0,0,5],[0,1,0,0,-5],[1,0,0,0,5],[1,1,0,0,-5]];perimeter=orthogonalPerimeter;outlineConnect=0;targetShapes=umlLifeline;portConstraint=eastwest;newEdgeStyle={&quot;curved&quot;:0,&quot;rounded&quot;:0};fillColor=#dae8fc;strokeColor=#6c8ebf;" parent="F7vfhrbOquVaVjIP4Q21-31" vertex="1">
          <mxGeometry x="77" y="557.5" width="10" height="40" as="geometry" />
        </mxCell>
        <mxCell id="F7vfhrbOquVaVjIP4Q21-40" value="BiCycle" style="shape=umlLifeline;participant=umlEntity;perimeter=lifelinePerimeter;whiteSpace=wrap;html=1;container=0;collapsible=0;recursiveResize=0;verticalAlign=top;spacingTop=36;outlineConnect=0;fillColor=#e1d5e7;strokeColor=#9673a6;" parent="1" vertex="1">
          <mxGeometry x="808" y="40" width="40" height="750" as="geometry" />
        </mxCell>
        <mxCell id="F7vfhrbOquVaVjIP4Q21-61" value="" style="html=1;verticalAlign=bottom;endArrow=block;entryX=0;entryY=0;rounded=0;" parent="1" source="F7vfhrbOquVaVjIP4Q21-28" target="F7vfhrbOquVaVjIP4Q21-43" edge="1">
          <mxGeometry x="1" y="125" relative="1" as="geometry">
            <mxPoint x="248.5" y="170" as="sourcePoint" />
            <mxPoint x="125" y="125" as="offset" />
          </mxGeometry>
        </mxCell>
        <mxCell id="F7vfhrbOquVaVjIP4Q21-62" value="启动Rfid入库" style="edgeLabel;html=1;align=center;verticalAlign=middle;resizable=0;points=[];container=0;" parent="F7vfhrbOquVaVjIP4Q21-61" vertex="1" connectable="0">
          <mxGeometry x="-0.0196" relative="1" as="geometry">
            <mxPoint as="offset" />
          </mxGeometry>
        </mxCell>
        <mxCell id="F7vfhrbOquVaVjIP4Q21-63" value="" style="shape=umlDestroy;html=1;container=0;" parent="1" vertex="1">
          <mxGeometry x="466" y="220" width="30" height="30" as="geometry" />
        </mxCell>
        <mxCell id="F7vfhrbOquVaVjIP4Q21-64" value="" style="html=1;verticalAlign=bottom;endArrow=block;entryX=0;entryY=0.072;rounded=0;entryDx=0;entryDy=0;entryPerimeter=0;" parent="1" source="F7vfhrbOquVaVjIP4Q21-43" target="F7vfhrbOquVaVjIP4Q21-32" edge="1">
          <mxGeometry x="1" y="125" relative="1" as="geometry">
            <mxPoint x="320" y="180" as="sourcePoint" />
            <mxPoint x="490" y="180" as="targetPoint" />
            <mxPoint x="125" y="125" as="offset" />
          </mxGeometry>
        </mxCell>
        <mxCell id="F7vfhrbOquVaVjIP4Q21-65" value="&lt;span style=&quot;color: rgb(25, 25, 25); font-family: &amp;quot;Microsoft YaHei&amp;quot;; font-size: 13.3333px;&quot;&gt;&lt;b&gt;开启入库事务（begin）&lt;/b&gt;&lt;/span&gt;" style="edgeLabel;html=1;align=center;verticalAlign=middle;resizable=0;points=[];container=0;" parent="F7vfhrbOquVaVjIP4Q21-64" vertex="1" connectable="0">
          <mxGeometry x="-0.0222" y="1" relative="1" as="geometry">
            <mxPoint as="offset" />
          </mxGeometry>
        </mxCell>
        <mxCell id="F7vfhrbOquVaVjIP4Q21-66" value="error" style="html=1;verticalAlign=bottom;endArrow=open;dashed=1;endSize=8;curved=0;rounded=0;exitX=0;exitY=1;exitDx=0;exitDy=-5;exitPerimeter=0;" parent="1" source="F7vfhrbOquVaVjIP4Q21-35" target="F7vfhrbOquVaVjIP4Q21-43" edge="1">
          <mxGeometry relative="1" as="geometry">
            <mxPoint x="549.9999999999997" y="229.99800000000042" as="sourcePoint" />
            <mxPoint x="320" y="216" as="targetPoint" />
          </mxGeometry>
        </mxCell>
        <mxCell id="F7vfhrbOquVaVjIP4Q21-67" value="" style="html=1;verticalAlign=bottom;endArrow=block;entryX=0.417;entryY=-0.029;rounded=0;exitX=0.833;exitY=0.986;exitDx=0;exitDy=0;exitPerimeter=0;entryDx=0;entryDy=0;entryPerimeter=0;" parent="1" source="F7vfhrbOquVaVjIP4Q21-32" target="F7vfhrbOquVaVjIP4Q21-70" edge="1">
          <mxGeometry x="1" y="125" relative="1" as="geometry">
            <mxPoint x="620" y="350" as="sourcePoint" />
            <mxPoint x="830" y="350" as="targetPoint" />
            <mxPoint x="125" y="125" as="offset" />
          </mxGeometry>
        </mxCell>
        <mxCell id="F7vfhrbOquVaVjIP4Q21-68" value="QueryByEpc" style="edgeLabel;html=1;align=center;verticalAlign=middle;resizable=0;points=[];container=0;" parent="F7vfhrbOquVaVjIP4Q21-67" vertex="1" connectable="0">
          <mxGeometry x="-0.0196" relative="1" as="geometry">
            <mxPoint as="offset" />
          </mxGeometry>
        </mxCell>
        <mxCell id="F7vfhrbOquVaVjIP4Q21-69" value="Full /&amp;nbsp;Incremental" style="text;html=1;align=center;verticalAlign=middle;resizable=0;points=[];autosize=1;strokeColor=none;fillColor=none;fontStyle=1;container=0;" parent="1" vertex="1">
          <mxGeometry x="431" y="397" width="120" height="30" as="geometry" />
        </mxCell>
        <mxCell id="F7vfhrbOquVaVjIP4Q21-70" value="" style="html=1;points=[];perimeter=orthogonalPerimeter;fillColor=#e1d5e7;strokeColor=#9673a6;container=0;" parent="1" vertex="1">
          <mxGeometry x="824" y="348" width="10" height="42" as="geometry" />
        </mxCell>
        <mxCell id="F7vfhrbOquVaVjIP4Q21-71" value="" style="endArrow=block;dashed=1;endFill=0;endSize=12;html=1;rounded=0;exitX=0.833;exitY=1.054;exitDx=0;exitDy=0;exitPerimeter=0;entryX=1;entryY=0;entryDx=0;entryDy=5;entryPerimeter=0;" parent="1" source="F7vfhrbOquVaVjIP4Q21-70" target="F7vfhrbOquVaVjIP4Q21-3" edge="1">
          <mxGeometry width="160" relative="1" as="geometry">
            <mxPoint x="651" y="410" as="sourcePoint" />
            <mxPoint x="811" y="410" as="targetPoint" />
          </mxGeometry>
        </mxCell>
        <mxCell id="F7vfhrbOquVaVjIP4Q21-72" value="Text" style="edgeLabel;html=1;align=center;verticalAlign=middle;resizable=0;points=[];container=0;" parent="F7vfhrbOquVaVjIP4Q21-71" vertex="1" connectable="0">
          <mxGeometry x="0.0127" y="1" relative="1" as="geometry">
            <mxPoint as="offset" />
          </mxGeometry>
        </mxCell>
        <mxCell id="F7vfhrbOquVaVjIP4Q21-73" value="TagInfo" style="edgeLabel;html=1;align=center;verticalAlign=middle;resizable=0;points=[];container=0;" parent="F7vfhrbOquVaVjIP4Q21-71" vertex="1" connectable="0">
          <mxGeometry x="0.0125" y="-1" relative="1" as="geometry">
            <mxPoint as="offset" />
          </mxGeometry>
        </mxCell>
        <mxCell id="F7vfhrbOquVaVjIP4Q21-59" value="sd searchForItems" style="shape=umlFrame;whiteSpace=wrap;html=1;width=120;height=30;boundedLbl=1;verticalAlign=middle;align=left;spacingLeft=5;fillColor=#f5f5f5;fontColor=#333333;strokeColor=#666666;" parent="1" vertex="1">
          <mxGeometry x="-120" y="-90" width="1110" height="940" as="geometry" />
        </mxCell>
        <mxCell id="F7vfhrbOquVaVjIP4Q21-2" value="" style="html=1;points=[[0,0,0,0,5],[0,1,0,0,-5],[1,0,0,0,5],[1,1,0,0,-5]];perimeter=orthogonalPerimeter;outlineConnect=0;targetShapes=umlLifeline;portConstraint=eastwest;newEdgeStyle={&quot;curved&quot;:0,&quot;rounded&quot;:0};fillColor=#ffe6cc;strokeColor=#d79b00;container=0;" parent="1" vertex="1">
          <mxGeometry x="338" y="430" width="10" height="39" as="geometry" />
        </mxCell>
        <mxCell id="F7vfhrbOquVaVjIP4Q21-3" value="" style="html=1;points=[[0,0,0,0,5],[0,1,0,0,-5],[1,0,0,0,5],[1,1,0,0,-5]];perimeter=orthogonalPerimeter;outlineConnect=0;targetShapes=umlLifeline;portConstraint=eastwest;newEdgeStyle={&quot;curved&quot;:0,&quot;rounded&quot;:0};fillColor=#dae8fc;strokeColor=#6c8ebf;container=0;" parent="1" vertex="1">
          <mxGeometry x="591" y="390" width="10" height="42" as="geometry" />
        </mxCell>
        <mxCell id="F7vfhrbOquVaVjIP4Q21-24" value="&lt;b style=&quot;font-size: 16px;&quot;&gt;返回标签&lt;/b&gt;" style="text;html=1;align=center;verticalAlign=middle;resizable=0;points=[];autosize=1;strokeColor=none;fillColor=none;container=0;" parent="1" vertex="1">
          <mxGeometry x="220" y="330" width="90" height="30" as="geometry" />
        </mxCell>
        <mxCell id="F7vfhrbOquVaVjIP4Q21-28" value="" style="html=1;points=[];perimeter=orthogonalPerimeter;fillColor=#f8cecc;strokeColor=#b85450;container=0;" parent="1" vertex="1">
          <mxGeometry x="135" y="150" width="10" height="650" as="geometry" />
        </mxCell>
        <mxCell id="F7vfhrbOquVaVjIP4Q21-29" value="" style="endArrow=block;endFill=1;html=1;edgeStyle=orthogonalEdgeStyle;align=left;verticalAlign=top;rounded=0;entryX=-0.067;entryY=0.008;entryDx=0;entryDy=0;entryPerimeter=0;" parent="1" target="F7vfhrbOquVaVjIP4Q21-28" edge="1">
          <mxGeometry x="-1" relative="1" as="geometry">
            <mxPoint x="130" y="700" as="sourcePoint" />
            <mxPoint x="-80" y="180" as="targetPoint" />
            <Array as="points">
              <mxPoint x="50" y="700" />
              <mxPoint x="50" y="155" />
            </Array>
          </mxGeometry>
        </mxCell>
        <mxCell id="F7vfhrbOquVaVjIP4Q21-30" value="重新开始" style="edgeLabel;html=1;align=center;verticalAlign=middle;resizable=0;points=[];container=0;" parent="F7vfhrbOquVaVjIP4Q21-29" vertex="1" connectable="0">
          <mxGeometry x="0.0513" y="2" relative="1" as="geometry">
            <mxPoint as="offset" />
          </mxGeometry>
        </mxCell>
        <mxCell id="F7vfhrbOquVaVjIP4Q21-32" value="" style="html=1;points=[];perimeter=orthogonalPerimeter;fillColor=#dae8fc;strokeColor=#6c8ebf;container=0;" parent="1" vertex="1">
          <mxGeometry x="590" y="152.5" width="10" height="200" as="geometry" />
        </mxCell>
        <mxCell id="F7vfhrbOquVaVjIP4Q21-35" value="" style="html=1;points=[[0,0,0,0,5],[0,1,0,0,-5],[1,0,0,0,5],[1,1,0,0,-5]];perimeter=orthogonalPerimeter;outlineConnect=0;targetShapes=umlLifeline;portConstraint=eastwest;newEdgeStyle={&quot;curved&quot;:0,&quot;rounded&quot;:0};fillColor=#dae8fc;strokeColor=#6c8ebf;container=0;" parent="1" vertex="1">
          <mxGeometry x="596" y="178.5" width="10" height="40" as="geometry" />
        </mxCell>
        <mxCell id="F7vfhrbOquVaVjIP4Q21-36" value="&amp;nbsp;&lt;span style=&quot;text-align: center;&quot;&gt;validate&lt;/span&gt;" style="html=1;align=left;spacingLeft=2;endArrow=block;rounded=0;edgeStyle=orthogonalEdgeStyle;curved=0;rounded=0;" parent="1" edge="1">
          <mxGeometry relative="1" as="geometry">
            <mxPoint x="601" y="164.5" as="sourcePoint" />
            <Array as="points">
              <mxPoint x="631" y="194.5" />
            </Array>
            <mxPoint x="606" y="194.5" as="targetPoint" />
          </mxGeometry>
        </mxCell>
        <mxCell id="F7vfhrbOquVaVjIP4Q21-38" value="" style="html=1;points=[[0,0,0,0,5],[0,1,0,0,-5],[1,0,0,0,5],[1,1,0,0,-5]];perimeter=orthogonalPerimeter;outlineConnect=0;targetShapes=umlLifeline;portConstraint=eastwest;newEdgeStyle={&quot;curved&quot;:0,&quot;rounded&quot;:0};fillColor=#dae8fc;strokeColor=#6c8ebf;container=0;" parent="1" vertex="1">
          <mxGeometry x="595" y="247.5" width="10" height="40" as="geometry" />
        </mxCell>
        <mxCell id="F7vfhrbOquVaVjIP4Q21-39" value="StartRfidReader" style="html=1;align=left;spacingLeft=2;endArrow=block;rounded=0;edgeStyle=orthogonalEdgeStyle;curved=0;rounded=0;" parent="1" target="F7vfhrbOquVaVjIP4Q21-38" edge="1">
          <mxGeometry relative="1" as="geometry">
            <mxPoint x="600" y="227.5" as="sourcePoint" />
            <Array as="points">
              <mxPoint x="630" y="257.5" />
            </Array>
          </mxGeometry>
        </mxCell>
        <mxCell id="F7vfhrbOquVaVjIP4Q21-42" value="&lt;span style=&quot;font-family:&#39;Microsoft YaHei&#39;; font-size:10.5pt; font-weight:600; color:#191919;&quot;&gt;冷库业务系统&lt;/span&gt;" style="shape=umlLifeline;perimeter=lifelinePerimeter;whiteSpace=wrap;html=1;container=0;collapsible=0;recursiveResize=0;outlineConnect=0;fillColor=#ffe6cc;strokeColor=#d79b00;" parent="1" vertex="1">
          <mxGeometry x="260" y="70" width="153.33" height="650" as="geometry" />
        </mxCell>
        <mxCell id="F7vfhrbOquVaVjIP4Q21-44" value="&lt;b&gt;[transactionId=20240902x]&lt;/b&gt;" style="text;html=1;align=center;verticalAlign=middle;resizable=0;points=[];autosize=1;strokeColor=none;fillColor=none;container=0;" parent="1" vertex="1">
          <mxGeometry x="359.6666666666667" y="167.68895348837208" width="170" height="30" as="geometry" />
        </mxCell>
        <mxCell id="F7vfhrbOquVaVjIP4Q21-45" value="" style="endArrow=block;dashed=1;endFill=0;endSize=12;html=1;rounded=0;" parent="1" source="F7vfhrbOquVaVjIP4Q21-3" edge="1">
          <mxGeometry width="160" relative="1" as="geometry">
            <mxPoint x="502.65" y="428.1928294573643" as="sourcePoint" />
            <mxPoint x="344.33333333333337" y="431.1986434108527" as="targetPoint" />
          </mxGeometry>
        </mxCell>
        <mxCell id="F7vfhrbOquVaVjIP4Q21-46" value="Text" style="edgeLabel;html=1;align=center;verticalAlign=middle;resizable=0;points=[];container=0;" parent="F7vfhrbOquVaVjIP4Q21-45" vertex="1" connectable="0">
          <mxGeometry x="0.0127" y="1" relative="1" as="geometry">
            <mxPoint as="offset" />
          </mxGeometry>
        </mxCell>
        <mxCell id="F7vfhrbOquVaVjIP4Q21-47" value="TagInfo" style="edgeLabel;html=1;align=center;verticalAlign=middle;resizable=0;points=[];container=0;" parent="F7vfhrbOquVaVjIP4Q21-45" vertex="1" connectable="0">
          <mxGeometry x="0.0125" y="-1" relative="1" as="geometry">
            <mxPoint as="offset" />
          </mxGeometry>
        </mxCell>
        <mxCell id="F7vfhrbOquVaVjIP4Q21-60" value="&lt;h1&gt;入库-重新扫描&lt;br&gt;&lt;/h1&gt;" style="text;html=1;align=center;verticalAlign=middle;resizable=0;points=[];autosize=1;fillColor=#f8cecc;strokeColor=#b85450;gradientColor=none;rounded=0;glass=1;sketch=1;curveFitting=1;jiggle=2;shadow=1;container=0;" parent="1" vertex="1">
          <mxGeometry x="360" y="-59.999263565891475" width="180" height="70" as="geometry" />
        </mxCell>
        <mxCell id="F7vfhrbOquVaVjIP4Q21-4" value="" style="html=1;points=[[0,0,0,0,5],[0,1,0,0,-5],[1,0,0,0,5],[1,1,0,0,-5]];perimeter=orthogonalPerimeter;outlineConnect=0;targetShapes=umlLifeline;portConstraint=eastwest;newEdgeStyle={&quot;curved&quot;:0,&quot;rounded&quot;:0};fillColor=#f8cecc;strokeColor=#b85450;container=0;" parent="1" vertex="1">
          <mxGeometry x="141" y="570" width="10" height="40" as="geometry" />
        </mxCell>
        <mxCell id="F7vfhrbOquVaVjIP4Q21-6" value="&lt;b&gt;[transactionId=20240902x]&lt;/b&gt;" style="text;html=1;align=center;verticalAlign=middle;resizable=0;points=[];autosize=1;strokeColor=none;fillColor=none;container=0;" parent="1" vertex="1">
          <mxGeometry x="360.6666666666667" y="590" width="170" height="30" as="geometry" />
        </mxCell>
        <mxCell id="F7vfhrbOquVaVjIP4Q21-7" value="点击重新扫描" style="html=1;verticalAlign=bottom;endArrow=block;curved=0;rounded=0;entryX=0.333;entryY=0.551;entryDx=0;entryDy=0;entryPerimeter=0;" parent="1" source="F7vfhrbOquVaVjIP4Q21-4" edge="1">
          <mxGeometry width="80" relative="1" as="geometry">
            <mxPoint x="151" y="580" as="sourcePoint" />
            <mxPoint x="336.38633333333337" y="580.1374999999998" as="targetPoint" />
          </mxGeometry>
        </mxCell>
        <mxCell id="F7vfhrbOquVaVjIP4Q21-8" value="&lt;span style=&quot;color: rgb(25, 25, 25); font-family: &amp;quot;Microsoft YaHei&amp;quot;;&quot;&gt;&lt;b style=&quot;&quot;&gt;&lt;font style=&quot;font-size: 13.3333px;&quot;&gt;取消盘库事务（cancel）&lt;/font&gt;&lt;/b&gt;&lt;/span&gt;" style="html=1;verticalAlign=bottom;endArrow=block;curved=0;rounded=0;entryX=0;entryY=0;entryDx=0;entryDy=5;entryPerimeter=0;exitX=0.917;exitY=0.562;exitDx=0;exitDy=0;exitPerimeter=0;" parent="1" target="F7vfhrbOquVaVjIP4Q21-5" edge="1">
          <mxGeometry x="-0.0037" width="80" relative="1" as="geometry">
            <mxPoint x="340.86366666666663" y="588.5250000000001" as="sourcePoint" />
            <mxPoint x="615" y="580" as="targetPoint" />
            <mxPoint as="offset" />
          </mxGeometry>
        </mxCell>
        <mxCell id="F7vfhrbOquVaVjIP4Q21-9" value="" style="endArrow=block;dashed=1;endFill=0;endSize=12;html=1;rounded=0;entryX=1;entryY=0.619;entryDx=0;entryDy=0;entryPerimeter=0;" parent="1" edge="1">
          <mxGeometry width="160" relative="1" as="geometry">
            <mxPoint x="591" y="669.9875000000002" as="sourcePoint" />
            <mxPoint x="341.5" y="669.9875000000002" as="targetPoint" />
          </mxGeometry>
        </mxCell>
        <mxCell id="F7vfhrbOquVaVjIP4Q21-10" value="Text" style="edgeLabel;html=1;align=center;verticalAlign=middle;resizable=0;points=[];container=0;" parent="F7vfhrbOquVaVjIP4Q21-9" vertex="1" connectable="0">
          <mxGeometry x="0.0519" y="-1" relative="1" as="geometry">
            <mxPoint as="offset" />
          </mxGeometry>
        </mxCell>
        <mxCell id="F7vfhrbOquVaVjIP4Q21-11" value="return" style="edgeLabel;html=1;align=center;verticalAlign=middle;resizable=0;points=[];container=0;" parent="F7vfhrbOquVaVjIP4Q21-9" vertex="1" connectable="0">
          <mxGeometry x="0.037" y="-2" relative="1" as="geometry">
            <mxPoint as="offset" />
          </mxGeometry>
        </mxCell>
        <mxCell id="F7vfhrbOquVaVjIP4Q21-12" value="" style="endArrow=block;dashed=1;endFill=0;endSize=12;html=1;rounded=0;exitX=0;exitY=0.653;exitDx=0;exitDy=0;exitPerimeter=0;" parent="1" edge="1">
          <mxGeometry width="160" relative="1" as="geometry">
            <mxPoint x="328.3333333333335" y="700.0024999999999" as="sourcePoint" />
            <mxPoint x="135" y="700.0024999999999" as="targetPoint" />
          </mxGeometry>
        </mxCell>
        <mxCell id="F7vfhrbOquVaVjIP4Q21-13" value="Text" style="edgeLabel;html=1;align=center;verticalAlign=middle;resizable=0;points=[];container=0;" parent="F7vfhrbOquVaVjIP4Q21-12" vertex="1" connectable="0">
          <mxGeometry x="0.0519" y="-1" relative="1" as="geometry">
            <mxPoint as="offset" />
          </mxGeometry>
        </mxCell>
        <mxCell id="F7vfhrbOquVaVjIP4Q21-14" value="return" style="edgeLabel;html=1;align=center;verticalAlign=middle;resizable=0;points=[];container=0;" parent="F7vfhrbOquVaVjIP4Q21-12" vertex="1" connectable="0">
          <mxGeometry x="0.037" y="-2" relative="1" as="geometry">
            <mxPoint as="offset" />
          </mxGeometry>
        </mxCell>
        <mxCell id="F7vfhrbOquVaVjIP4Q21-43" value="" style="html=1;points=[];perimeter=orthogonalPerimeter;fillColor=#ffe6cc;strokeColor=#d79b00;container=0;" parent="1" vertex="1">
          <mxGeometry x="332.83" y="147.65" width="7.67" height="642.35" as="geometry" />
        </mxCell>
      </root>
    </mxGraphModel>
  </diagram>
  <diagram id="T8sxpgJzUAqh9inL8GAS" name="出库-定制">
    <mxGraphModel dx="2933" dy="873" grid="1" gridSize="10" guides="1" tooltips="1" connect="1" arrows="1" fold="1" page="1" pageScale="1" pageWidth="827" pageHeight="1169" math="0" shadow="0">
      <root>
        <mxCell id="0" />
        <mxCell id="1" parent="0" />
        <mxCell id="CWnKQxNXcsYEuCwcrzkk-2" value="sd searchForItems" style="shape=umlFrame;whiteSpace=wrap;html=1;width=120;height=30;boundedLbl=1;verticalAlign=middle;align=left;spacingLeft=5;fillColor=#f5f5f5;fontColor=#333333;strokeColor=#666666;" vertex="1" parent="1">
          <mxGeometry x="50" y="22" width="1089.5" height="960" as="geometry" />
        </mxCell>
        <mxCell id="CWnKQxNXcsYEuCwcrzkk-14" value=":Customer" style="shape=umlLifeline;participant=umlActor;perimeter=lifelinePerimeter;html=1;container=1;collapsible=0;recursiveResize=0;verticalAlign=top;spacingTop=36;outlineConnect=0;size=40;fillColor=#f8cecc;strokeColor=#b85450;" vertex="1" parent="1">
          <mxGeometry x="-915.833125" y="170" width="20.491666666666664" height="750" as="geometry" />
        </mxCell>
        <mxCell id="CWnKQxNXcsYEuCwcrzkk-15" value="" style="html=1;points=[];perimeter=orthogonalPerimeter;fillColor=#f8cecc;strokeColor=#b85450;" vertex="1" parent="CWnKQxNXcsYEuCwcrzkk-14">
          <mxGeometry x="5.122916666666666" y="70" width="10.245833333333332" height="680" as="geometry" />
        </mxCell>
        <mxCell id="CWnKQxNXcsYEuCwcrzkk-17" value="&lt;span style=&quot;font-family:&#39;Microsoft YaHei&#39;; font-size:10.5pt; font-weight:600; color:#191919;&quot;&gt;冷库服务&lt;/span&gt;" style="shape=umlLifeline;perimeter=lifelinePerimeter;whiteSpace=wrap;html=1;container=1;collapsible=0;recursiveResize=0;outlineConnect=0;fillColor=#dae8fc;strokeColor=#6c8ebf;" vertex="1" parent="1">
          <mxGeometry x="-524.4422916666667" y="162.5" width="151.6383333333333" height="757.5" as="geometry" />
        </mxCell>
        <mxCell id="CWnKQxNXcsYEuCwcrzkk-26" value="BiCycle" style="shape=umlLifeline;participant=umlEntity;perimeter=lifelinePerimeter;whiteSpace=wrap;html=1;container=1;collapsible=0;recursiveResize=0;verticalAlign=top;spacingTop=36;outlineConnect=0;fillColor=#e1d5e7;strokeColor=#9673a6;" vertex="1" parent="1">
          <mxGeometry x="-226.37895833333346" y="162.5" width="40.98333333333333" height="767.5" as="geometry" />
        </mxCell>
        <mxCell id="CWnKQxNXcsYEuCwcrzkk-66" value="" style="html=1;points=[[0,0,0,0,5],[0,1,0,0,-5],[1,0,0,0,5],[1,1,0,0,-5]];perimeter=orthogonalPerimeter;outlineConnect=0;targetShapes=umlLifeline;portConstraint=eastwest;newEdgeStyle={&quot;curved&quot;:0,&quot;rounded&quot;:0};fillColor=#e1d5e7;strokeColor=#9673a6;" vertex="1" parent="CWnKQxNXcsYEuCwcrzkk-26">
          <mxGeometry x="15.367500000000064" y="277" width="10.245833333333332" height="39" as="geometry" />
        </mxCell>
        <mxCell id="CWnKQxNXcsYEuCwcrzkk-37" value="出库失败请重试" style="html=1;verticalAlign=bottom;endArrow=open;dashed=1;endSize=8;curved=0;rounded=0;" edge="1" parent="1">
          <mxGeometry x="-0.0008" relative="1" as="geometry">
            <mxPoint x="-703.9976104166668" y="347" as="sourcePoint" />
            <mxPoint x="-894.7514583333333" y="347" as="targetPoint" />
            <mxPoint as="offset" />
          </mxGeometry>
        </mxCell>
        <mxCell id="CWnKQxNXcsYEuCwcrzkk-39" value="" style="shape=umlDestroy;html=1;" vertex="1" parent="1">
          <mxGeometry x="-812.7847916666666" y="355" width="30.737499999999994" height="30" as="geometry" />
        </mxCell>
        <mxCell id="CWnKQxNXcsYEuCwcrzkk-41" value="&lt;span style=&quot;font-family:&#39;Microsoft YaHei&#39;; font-size:10.5pt; font-weight:600; color:#191919;&quot;&gt;冷库业务系统&lt;/span&gt;" style="shape=umlLifeline;perimeter=lifelinePerimeter;whiteSpace=wrap;html=1;container=1;collapsible=0;recursiveResize=0;outlineConnect=0;fillColor=#ffe6cc;strokeColor=#d79b00;" vertex="1" parent="1">
          <mxGeometry x="-782.6372916666667" y="162.5" width="157.0993625" height="770" as="geometry" />
        </mxCell>
        <mxCell id="CWnKQxNXcsYEuCwcrzkk-42" value="" style="html=1;points=[];perimeter=orthogonalPerimeter;fillColor=#ffe6cc;strokeColor=#d79b00;" vertex="1" parent="CWnKQxNXcsYEuCwcrzkk-41">
          <mxGeometry x="74.62040416666666" y="77.5" width="7.858554166666665" height="682.5" as="geometry" />
        </mxCell>
        <mxCell id="CWnKQxNXcsYEuCwcrzkk-43" value="" style="html=1;points=[[0,0,0,0,5],[0,1,0,0,-5],[1,0,0,0,5],[1,1,0,0,-5]];perimeter=orthogonalPerimeter;outlineConnect=0;targetShapes=umlLifeline;portConstraint=eastwest;newEdgeStyle={&quot;curved&quot;:0,&quot;rounded&quot;:0};fillColor=#ffe6cc;strokeColor=#d79b00;" vertex="1" parent="CWnKQxNXcsYEuCwcrzkk-41">
          <mxGeometry x="78.45833333333333" y="147.5" width="10.245833333333332" height="40" as="geometry" />
        </mxCell>
        <mxCell id="CWnKQxNXcsYEuCwcrzkk-44" value="等待机械臂" style="html=1;align=left;spacingLeft=2;endArrow=block;rounded=0;edgeStyle=orthogonalEdgeStyle;curved=0;rounded=0;" edge="1" parent="CWnKQxNXcsYEuCwcrzkk-41" target="CWnKQxNXcsYEuCwcrzkk-43">
          <mxGeometry relative="1" as="geometry">
            <mxPoint x="83.58125" y="127.5" as="sourcePoint" />
            <Array as="points">
              <mxPoint x="114.31875" y="157.5" />
            </Array>
          </mxGeometry>
        </mxCell>
        <mxCell id="CWnKQxNXcsYEuCwcrzkk-52" value="" style="html=1;points=[[0,0,0,0,5],[0,1,0,0,-5],[1,0,0,0,5],[1,1,0,0,-5]];perimeter=orthogonalPerimeter;outlineConnect=0;targetShapes=umlLifeline;portConstraint=eastwest;newEdgeStyle={&quot;curved&quot;:0,&quot;rounded&quot;:0};fillColor=#f8cecc;strokeColor=#b85450;" vertex="1" parent="1">
          <mxGeometry x="-904.9972916666667" y="275" width="10.245833333333332" height="40" as="geometry" />
        </mxCell>
        <mxCell id="CWnKQxNXcsYEuCwcrzkk-53" value="点击出库" style="html=1;verticalAlign=bottom;endArrow=block;curved=0;rounded=0;entryX=0.333;entryY=0.551;entryDx=0;entryDy=0;entryPerimeter=0;" edge="1" parent="1">
          <mxGeometry width="80" relative="1" as="geometry">
            <mxPoint x="-894.7514583333333" y="275" as="sourcePoint" />
            <mxPoint x="-705.2035416666666" y="275" as="targetPoint" />
          </mxGeometry>
        </mxCell>
        <mxCell id="CWnKQxNXcsYEuCwcrzkk-54" value="&lt;b&gt;&lt;font style=&quot;font-size: 13.3333px;&quot;&gt;提交货位号以及血液（submit）&lt;/font&gt;&lt;/b&gt;" style="html=1;verticalAlign=bottom;endArrow=block;curved=0;rounded=0;" edge="1" parent="1" target="CWnKQxNXcsYEuCwcrzkk-55">
          <mxGeometry width="80" relative="1" as="geometry">
            <mxPoint x="-700.080625" y="395.08000000000004" as="sourcePoint" />
            <mxPoint x="-510.5327083333334" y="395.08000000000004" as="targetPoint" />
          </mxGeometry>
        </mxCell>
        <mxCell id="CWnKQxNXcsYEuCwcrzkk-55" value="" style="html=1;points=[[0,0,0,0,5],[0,1,0,0,-5],[1,0,0,0,5],[1,1,0,0,-5]];perimeter=orthogonalPerimeter;outlineConnect=0;targetShapes=umlLifeline;portConstraint=eastwest;newEdgeStyle={&quot;curved&quot;:0,&quot;rounded&quot;:0};fillColor=#dae8fc;strokeColor=#6c8ebf;" vertex="1" parent="1">
          <mxGeometry x="-451.10687499999995" y="392" width="10.245833333333332" height="49.5" as="geometry" />
        </mxCell>
        <mxCell id="CWnKQxNXcsYEuCwcrzkk-56" value="" style="html=1;points=[[0,0,0,0,5],[0,1,0,0,-5],[1,0,0,0,5],[1,1,0,0,-5]];perimeter=orthogonalPerimeter;outlineConnect=0;targetShapes=umlLifeline;portConstraint=eastwest;newEdgeStyle={&quot;curved&quot;:0,&quot;rounded&quot;:0};fillColor=#dae8fc;strokeColor=#6c8ebf;" vertex="1" parent="1">
          <mxGeometry x="-452.1314583333334" y="478.5" width="10.245833333333332" height="39" as="geometry" />
        </mxCell>
        <mxCell id="CWnKQxNXcsYEuCwcrzkk-57" value="" style="endArrow=block;dashed=1;endFill=0;endSize=12;html=1;rounded=0;" edge="1" parent="1">
          <mxGeometry width="160" relative="1" as="geometry">
            <mxPoint x="-443.9347916666667" y="517.5" as="sourcePoint" />
            <mxPoint x="-700.080625" y="518" as="targetPoint" />
          </mxGeometry>
        </mxCell>
        <mxCell id="CWnKQxNXcsYEuCwcrzkk-58" value="Text" style="edgeLabel;html=1;align=center;verticalAlign=middle;resizable=0;points=[];" vertex="1" connectable="0" parent="CWnKQxNXcsYEuCwcrzkk-57">
          <mxGeometry x="0.0519" y="-1" relative="1" as="geometry">
            <mxPoint as="offset" />
          </mxGeometry>
        </mxCell>
        <mxCell id="CWnKQxNXcsYEuCwcrzkk-59" value="return" style="edgeLabel;html=1;align=center;verticalAlign=middle;resizable=0;points=[];" vertex="1" connectable="0" parent="CWnKQxNXcsYEuCwcrzkk-57">
          <mxGeometry x="0.037" y="-2" relative="1" as="geometry">
            <mxPoint as="offset" />
          </mxGeometry>
        </mxCell>
        <mxCell id="CWnKQxNXcsYEuCwcrzkk-60" value="&lt;h1&gt;出库-定制&lt;br&gt;&lt;/h1&gt;" style="text;html=1;align=center;verticalAlign=middle;resizable=0;points=[];autosize=1;fillColor=#f8cecc;strokeColor=#b85450;gradientColor=none;rounded=0;glass=1;sketch=1;curveFitting=1;jiggle=2;shadow=1;" vertex="1" parent="1">
          <mxGeometry x="-625.5347916666667" y="40" width="130" height="70" as="geometry" />
        </mxCell>
        <mxCell id="CWnKQxNXcsYEuCwcrzkk-63" value="" style="endArrow=block;dashed=1;endFill=0;endSize=12;html=1;rounded=0;" edge="1" parent="1">
          <mxGeometry width="160" relative="1" as="geometry">
            <mxPoint x="-710.3264583333333" y="517.5" as="sourcePoint" />
            <mxPoint x="-894.7514583333333" y="518" as="targetPoint" />
          </mxGeometry>
        </mxCell>
        <mxCell id="CWnKQxNXcsYEuCwcrzkk-64" value="Text" style="edgeLabel;html=1;align=center;verticalAlign=middle;resizable=0;points=[];" vertex="1" connectable="0" parent="CWnKQxNXcsYEuCwcrzkk-63">
          <mxGeometry x="0.0519" y="-1" relative="1" as="geometry">
            <mxPoint as="offset" />
          </mxGeometry>
        </mxCell>
        <mxCell id="CWnKQxNXcsYEuCwcrzkk-65" value="出库成功" style="edgeLabel;html=1;align=center;verticalAlign=middle;resizable=0;points=[];" vertex="1" connectable="0" parent="CWnKQxNXcsYEuCwcrzkk-63">
          <mxGeometry x="0.037" y="-2" relative="1" as="geometry">
            <mxPoint as="offset" />
          </mxGeometry>
        </mxCell>
        <mxCell id="CWnKQxNXcsYEuCwcrzkk-16" value="" style="endArrow=open;endFill=1;endSize=12;html=1;rounded=0;" edge="1" parent="1">
          <mxGeometry width="160" relative="1" as="geometry">
            <mxPoint x="-915.833125" y="352" as="sourcePoint" />
            <mxPoint x="-915.833125" y="280" as="targetPoint" />
            <Array as="points">
              <mxPoint x="-997.7997916666667" y="352" />
              <mxPoint x="-1028.5372916666665" y="352" />
              <mxPoint x="-1028.5372916666665" y="280" />
            </Array>
          </mxGeometry>
        </mxCell>
        <mxCell id="CWnKQxNXcsYEuCwcrzkk-67" value="&lt;b style=&quot;color: rgb(25, 25, 25); font-family: &amp;quot;Microsoft YaHei&amp;quot;; font-size: 13.3333px;&quot;&gt;提交货位号以及血液（Inbox）&lt;/b&gt;" style="html=1;verticalAlign=bottom;endArrow=block;curved=0;rounded=0;" edge="1" parent="1">
          <mxGeometry width="80" relative="1" as="geometry">
            <mxPoint x="-451.110625" y="441.58000000000004" as="sourcePoint" />
            <mxPoint x="-202.03" y="441.5" as="targetPoint" />
          </mxGeometry>
        </mxCell>
      </root>
    </mxGraphModel>
  </diagram>
  <diagram id="0PCeIyfx908hVZW7dajC" name="盘库（宏诚-盘库页面）">
    <mxGraphModel dx="2805" dy="786" grid="1" gridSize="10" guides="1" tooltips="1" connect="1" arrows="1" fold="1" page="1" pageScale="1" pageWidth="827" pageHeight="1169" math="0" shadow="0">
      <root>
        <mxCell id="0" />
        <mxCell id="1" parent="0" />
        <mxCell id="GdKYggSOBp5zmtaG2bh--1" value=":Customer" style="shape=umlLifeline;participant=umlActor;perimeter=lifelinePerimeter;html=1;container=1;collapsible=0;recursiveResize=0;verticalAlign=top;spacingTop=36;outlineConnect=0;size=40;fillColor=#f8cecc;strokeColor=#b85450;" vertex="1" parent="1">
          <mxGeometry x="-1550.003125" y="120" width="20.491666666666664" height="800" as="geometry" />
        </mxCell>
        <mxCell id="GdKYggSOBp5zmtaG2bh--2" value="" style="html=1;points=[];perimeter=orthogonalPerimeter;fillColor=#f8cecc;strokeColor=#b85450;" vertex="1" parent="GdKYggSOBp5zmtaG2bh--1">
          <mxGeometry x="5.12" y="70" width="10.25" height="730" as="geometry" />
        </mxCell>
        <mxCell id="VqDMIaVeIUCoXIT12TEP-1" value="&lt;span style=&quot;font-family:&#39;Microsoft YaHei&#39;; font-size:10.5pt; font-weight:600; color:#191919;&quot;&gt;冷库服务&lt;/span&gt;" style="shape=umlLifeline;perimeter=lifelinePerimeter;whiteSpace=wrap;html=1;container=1;collapsible=0;recursiveResize=0;outlineConnect=0;fillColor=#dae8fc;strokeColor=#6c8ebf;" vertex="1" parent="1">
          <mxGeometry x="-870.0022916666667" y="120" width="151.6383333333333" height="757.5" as="geometry" />
        </mxCell>
        <mxCell id="GI7WG8cJsamo9AcOyjx--1" value="&lt;font face=&quot;Microsoft YaHei&quot; color=&quot;#191919&quot;&gt;&lt;span style=&quot;font-size: 14px;&quot;&gt;&lt;b&gt;宏城-盘库页面&lt;/b&gt;&lt;/span&gt;&lt;/font&gt;" style="shape=umlLifeline;perimeter=lifelinePerimeter;whiteSpace=wrap;html=1;container=1;collapsible=0;recursiveResize=0;outlineConnect=0;fillColor=#d5e8d4;strokeColor=#82b366;" vertex="1" parent="1">
          <mxGeometry x="-1140.0022916666667" y="120" width="151.6383333333333" height="757.5" as="geometry" />
        </mxCell>
        <mxCell id="GI7WG8cJsamo9AcOyjx--3" value="" style="html=1;points=[];perimeter=orthogonalPerimeter;fillColor=#d5e8d4;strokeColor=#82b366;" vertex="1" parent="GI7WG8cJsamo9AcOyjx--1">
          <mxGeometry x="71.89" y="110" width="7.86" height="560" as="geometry" />
        </mxCell>
        <mxCell id="GI7WG8cJsamo9AcOyjx--2" value="&lt;span style=&quot;font-family:&#39;Microsoft YaHei&#39;; font-size:10.5pt; font-weight:600; color:#191919;&quot;&gt;盘库盒&lt;/span&gt;" style="shape=umlLifeline;perimeter=lifelinePerimeter;whiteSpace=wrap;html=1;container=1;collapsible=0;recursiveResize=0;outlineConnect=0;fillColor=#fff2cc;strokeColor=#d6b656;" vertex="1" parent="1">
          <mxGeometry x="-610.0022916666667" y="120" width="151.6383333333333" height="757.5" as="geometry" />
        </mxCell>
        <mxCell id="HsPZ5qJ9ZzVsc_PDgFQq-1" value="&lt;span style=&quot;font-family:&#39;Microsoft YaHei&#39;; font-size:10.5pt; font-weight:600; color:#191919;&quot;&gt;冷库业务系统&lt;/span&gt;" style="shape=umlLifeline;perimeter=lifelinePerimeter;whiteSpace=wrap;html=1;container=0;collapsible=0;recursiveResize=0;outlineConnect=0;fillColor=#ffe6cc;strokeColor=#d79b00;" vertex="1" parent="1">
          <mxGeometry x="-1430" y="120" width="157.1" height="760" as="geometry" />
        </mxCell>
        <mxCell id="HsPZ5qJ9ZzVsc_PDgFQq-2" value="" style="html=1;points=[];perimeter=orthogonalPerimeter;fillColor=#ffe6cc;strokeColor=#d79b00;" vertex="1" parent="1">
          <mxGeometry x="-1355.38" y="193" width="7.86" height="42.5" as="geometry" />
        </mxCell>
        <mxCell id="f7LvN9nwwH7yEPKV6jzJ-1" value="点击盘库开始" style="html=1;verticalAlign=bottom;endArrow=block;curved=0;rounded=0;entryX=0.237;entryY=0.023;entryDx=0;entryDy=0;entryPerimeter=0;exitX=0.907;exitY=0.005;exitDx=0;exitDy=0;exitPerimeter=0;" edge="1" parent="1" source="GdKYggSOBp5zmtaG2bh--2" target="HsPZ5qJ9ZzVsc_PDgFQq-2">
          <mxGeometry width="80" relative="1" as="geometry">
            <mxPoint x="-1537.0714583333333" y="187.5" as="sourcePoint" />
            <mxPoint x="-1347.5235416666667" y="187.5" as="targetPoint" />
          </mxGeometry>
        </mxCell>
        <mxCell id="f7LvN9nwwH7yEPKV6jzJ-2" value="&lt;b style=&quot;color: rgb(25, 25, 25); font-family: &amp;quot;Microsoft YaHei&amp;quot;; font-size: 13.3333px;&quot;&gt;开启盘库事务（begin）&lt;/b&gt;" style="html=1;verticalAlign=bottom;endArrow=block;curved=0;rounded=0;entryX=0.226;entryY=0.01;entryDx=0;entryDy=0;entryPerimeter=0;exitX=0.907;exitY=0.005;exitDx=0;exitDy=0;exitPerimeter=0;" edge="1" parent="1" target="GI7WG8cJsamo9AcOyjx--3">
          <mxGeometry width="80" relative="1" as="geometry">
            <mxPoint x="-1347.52" y="235.5" as="sourcePoint" />
            <mxPoint x="-1165.52" y="235.5" as="targetPoint" />
          </mxGeometry>
        </mxCell>
      </root>
    </mxGraphModel>
  </diagram>
</mxfile>
